<svg id="Слой_1" data-name="Слой 1" xmlns="http://www.w3.org/2000/svg" viewBox="0 0 157.84 157.84"><path d="M7.5,157.34a7,7,0,0,1-4.95-12L145.39,2.55a7,7,0,1,1,9.89,9.9L12.45,155.28A6.93,6.93,0,0,1,7.5,157.34Z"/><path d="M150.34,1a6.5,6.5,0,0,1,4.59,11.1L12.1,154.93a6.5,6.5,0,0,1-9.2-9.19L145.74,2.9a6.49,6.49,0,0,1,4.6-1.9m0-1A7.48,7.48,0,0,0,145,2.2L2.2,145a7.5,7.5,0,1,0,10.6,10.61L155.64,12.8A7.5,7.5,0,0,0,150.34,0Z"/><path d="M150.33,157.34a6.92,6.92,0,0,1-4.94-2.06L2.55,12.45a7,7,0,0,1,9.9-9.9L155.28,145.39a7,7,0,0,1-4.95,12Z"/><path d="M7.5,1a6.49,6.49,0,0,1,4.6,1.9L154.93,145.74a6.5,6.5,0,1,1-9.19,9.19L2.9,12.1A6.5,6.5,0,0,1,7.5,1m0-1A7.5,7.5,0,0,0,2.2,12.8L145,155.64A7.5,7.5,0,0,0,155.64,145L12.8,2.2A7.44,7.44,0,0,0,7.5,0Z"/></svg>