<svg id="Слой_1" data-name="Слой 1" xmlns="http://www.w3.org/2000/svg" viewBox="0 0 331.65 169.49"><path d="M93.61,3.77h0a12.61,12.61,0,0,1,0,17.81L39.3,75.88a12.59,12.59,0,0,0,0,17.81L93.61,148a12.61,12.61,0,0,1,0,17.81h0a12.59,12.59,0,0,1-17.81,0L3.69,93.69a12.59,12.59,0,0,1,0-17.81L75.8,3.77A12.59,12.59,0,0,1,93.61,3.77Z"/><path d="M238,165.72h0a12.59,12.59,0,0,1,0-17.81l54.31-54.3a12.61,12.61,0,0,0,0-17.81L238,21.49a12.58,12.58,0,0,1,0-17.8h0a12.59,12.59,0,0,1,17.81,0L328,75.8a12.59,12.59,0,0,1,0,17.81l-72.11,72.11A12.61,12.61,0,0,1,238,165.72Z"/><path d="M194.12,3.11h0a9,9,0,0,0-11.45,5.56L161.61,69.39a15.75,15.75,0,0,0-11.29,18.2l.05.26A15.77,15.77,0,0,0,153.06,94L132,154.84a9,9,0,0,0,5.56,11.45h0A9,9,0,0,0,149,160.74L170,100a15.78,15.78,0,0,0,11.29-18.21l-.05-.25a15.71,15.71,0,0,0-2.69-6.19l21.08-60.81A9,9,0,0,0,194.12,3.11Z"/></svg>