<svg id="Слой_1" data-name="Слой 1" xmlns="http://www.w3.org/2000/svg" viewBox="0 0 206 282"><path d="M103,0A73,73,0,0,0,30,73v49H48.5V71h0a54.5,54.5,0,0,1,109,0h0v51H176V73A73,73,0,0,0,103,0Z"/><path d="M185.53,136H20.47A20.46,20.46,0,0,0,0,156.47V261.53A20.46,20.46,0,0,0,20.47,282H185.53A20.46,20.46,0,0,0,206,261.53V156.47A20.46,20.46,0,0,0,185.53,136ZM103,253a40,40,0,1,1,40-40A40,40,0,0,1,103,253Z"/><polygon points="77.89 217.91 81.54 211.42 103.11 223.55 121.33 191.12 128.53 195.16 106.66 234.07 77.89 217.91"/></svg>