<svg id="Слой_1" data-name="Слой 1" xmlns="http://www.w3.org/2000/svg" viewBox="0 0 114 98"><defs><style>.cls-1{fill:#fff;}</style></defs><path class="cls-1" d="M101.36,45A6.65,6.65,0,0,1,108,51.64V85.36A6.65,6.65,0,0,1,101.36,92H12.64A6.65,6.65,0,0,1,6,85.36V51.64A6.65,6.65,0,0,1,12.64,45h88.72m0-6H12.64A12.64,12.64,0,0,0,0,51.64V85.36A12.64,12.64,0,0,0,12.64,98h88.72A12.64,12.64,0,0,0,114,85.36V51.64A12.64,12.64,0,0,0,101.36,39Z"/><path class="cls-1" d="M61.11,6A18.91,18.91,0,0,1,80,24.89V39H34V24.89A18.91,18.91,0,0,1,52.89,6h8.22m0-6H52.89A24.89,24.89,0,0,0,28,24.89V45H86V24.89A24.89,24.89,0,0,0,61.11,0Z"/><rect class="cls-1" x="49" y="59" width="14" height="14" rx="7"/></svg>