<svg id="Layer_1" data-name="Layer 1" xmlns="http://www.w3.org/2000/svg" viewBox="0 0 321.74 321.74"><path d="M321.74,191.34V135.17a4.78,4.78,0,0,0-4.78-4.78H299a4.77,4.77,0,0,1-4.63-3.61,136.23,136.23,0,0,0-15-36.22,4.77,4.77,0,0,1,.72-5.82l12.69-12.69a4.77,4.77,0,0,0,0-6.76L256.45,29a4.77,4.77,0,0,0-6.76,0L237,41.64a4.77,4.77,0,0,1-5.82.72,136.23,136.23,0,0,0-36.22-15,4.78,4.78,0,0,1-3.62-4.63V4.78A4.77,4.77,0,0,0,186.57,0h-51.4a4.77,4.77,0,0,0-4.77,4.78V22.72a4.78,4.78,0,0,1-3.61,4.63,136,136,0,0,0-36.22,15,4.78,4.78,0,0,1-5.83-.72L72.05,29a4.77,4.77,0,0,0-6.76,0L29,65.29A4.76,4.76,0,0,0,29,72l12.69,12.7a4.77,4.77,0,0,1,.72,5.82,136.23,136.23,0,0,0-15,36.22,4.78,4.78,0,0,1-4.63,3.61H4.78A4.78,4.78,0,0,0,0,135.17v51.4a4.78,4.78,0,0,0,4.78,4.77H22.72A4.78,4.78,0,0,1,27.35,195a136,136,0,0,0,15,36.22,4.78,4.78,0,0,1-.72,5.83L29,249.69a4.77,4.77,0,0,0,0,6.76l36.34,36.34a4.77,4.77,0,0,0,6.76,0L84.74,280.1a4.77,4.77,0,0,1,5.82-.72,136.23,136.23,0,0,0,36.22,15,4.78,4.78,0,0,1,3.61,4.62V317a4.78,4.78,0,0,0,4.78,4.78h51.4a4.78,4.78,0,0,0,4.77-4.78V299a4.78,4.78,0,0,1,3.61-4.63,136,136,0,0,0,36.22-15,4.78,4.78,0,0,1,5.83.72l12.69,12.69a4.77,4.77,0,0,0,6.76,0l36.34-36.34a4.77,4.77,0,0,0,0-6.76L280.1,237a4.78,4.78,0,0,1-.72-5.83,136,136,0,0,0,15-36.22,4.78,4.78,0,0,1,4.62-3.61Zm-35.05-5.69a127,127,0,0,1-19.34,46.66h0a4.77,4.77,0,0,0,.59,6l11.34,11.34a4.79,4.79,0,0,1,0,6.76l-22.83,22.83a4.79,4.79,0,0,1-6.76,0l-11.34-11.34a4.77,4.77,0,0,0-6-.59h0a126.84,126.84,0,0,1-46.66,19.34h0a4.77,4.77,0,0,0-3.86,4.69v16a4.78,4.78,0,0,1-4.78,4.78H144.73A4.78,4.78,0,0,1,140,307.4v-16a4.78,4.78,0,0,0-3.86-4.69h0a126.84,126.84,0,0,1-46.66-19.34h0a4.79,4.79,0,0,0-6.05.59L72,279.28a4.78,4.78,0,0,1-6.75,0L42.46,256.45a4.77,4.77,0,0,1,0-6.76L53.8,238.35a4.78,4.78,0,0,0,.59-6h0a126.84,126.84,0,0,1-19.34-46.66h0a4.77,4.77,0,0,0-4.69-3.86h-16A4.78,4.78,0,0,1,9.56,177V144.73A4.78,4.78,0,0,1,14.33,140h16a4.78,4.78,0,0,0,4.69-3.86h0A126.84,126.84,0,0,1,54.39,89.43h0a4.79,4.79,0,0,0-.59-6.05L42.46,72a4.78,4.78,0,0,1,0-6.75L65.29,42.46a4.79,4.79,0,0,1,6.76,0L83.38,53.8a4.8,4.8,0,0,0,6.05.59h0a126.84,126.84,0,0,1,46.66-19.34h0A4.78,4.78,0,0,0,140,30.36v-16a4.78,4.78,0,0,1,4.78-4.77H177a4.78,4.78,0,0,1,4.78,4.77v16a4.78,4.78,0,0,0,3.86,4.69h0a126.84,126.84,0,0,1,46.66,19.34h0a4.79,4.79,0,0,0,6.05-.59l11.33-11.34a4.79,4.79,0,0,1,6.76,0l22.83,22.83a4.79,4.79,0,0,1,0,6.76L267.94,83.38a4.79,4.79,0,0,0-.59,6.05h0a126.84,126.84,0,0,1,19.34,46.66h0a4.78,4.78,0,0,0,4.69,3.86h16a4.78,4.78,0,0,1,4.78,4.78V177a4.78,4.78,0,0,1-4.78,4.78h-16a4.78,4.78,0,0,0-4.68,3.86Z"/></svg>