<?xml version="1.0" encoding="UTF-8"?><svg id="_лой_1" xmlns="http://www.w3.org/2000/svg" viewBox="0 0 427.1 427.25"><defs><style>.cls-1{fill:#29abe2;}</style></defs><path class="cls-1" d="M423.44,236.96l-36.21-24.8c-4.41-3.02-4.92-9.33-1.06-13.02l33.4-31.9c2.23-2.13,3.11-5.32,2.31-8.3-8.84-33.02-25.36-62.91-47.54-87.62-2.19-2.44-5.6-3.39-8.74-2.43l-37.62,11.52c-5.11,1.56-10.36-1.97-10.84-7.29l-4-44.74c-.26-2.94-2.05-5.53-4.71-6.82C280.09,7.75,248.25,0,214.59,0c-4.43,0-8.82,.14-13.18,.41-3.26,.2-6.11,2.27-7.31,5.31l-15.13,38.33c-1.96,4.97-8,6.87-12.46,3.93l-38.42-25.39c-2.51-1.66-5.7-1.84-8.4-.51-34.23,16.9-63.29,42.66-84.21,74.29-1.76,2.66-1.87,6.09-.28,8.85l23.93,41.65c2.66,4.63,.39,10.54-4.7,12.19l-46.05,14.94c-3.02,.98-5.22,3.57-5.72,6.7-1.75,11.04-2.67,22.36-2.67,33.9,0,25.59,4.49,50.13,12.71,72.89,1.05,2.91,3.6,5.01,6.66,5.48l53.86,8.23c5.28,.81,8.48,6.27,6.6,11.27l-17.44,46.38c-1.17,3.12-.39,6.64,1.99,8.98,23.34,22.88,51.88,40.47,83.69,50.84,2.91,.95,6.1,.26,8.35-1.81l40.98-37.87c3.92-3.63,10.19-2.72,12.93,1.87l25.25,42.31c1.73,2.9,5.02,4.49,8.36,4.03,31.1-4.25,60.08-15.17,85.45-31.27,2.62-1.66,4.11-4.63,3.89-7.72l-3.72-51.04c-.39-5.33,4.23-9.66,9.52-8.94l47.65,6.48c3.23,.44,6.43-1.03,8.2-3.76,16.43-25.42,27.63-54.53,32.08-85.82,.45-3.17-.94-6.33-3.58-8.14Zm-209.59,112.98c-75.11,0-136-60.89-136-136S138.74,77.93,213.85,77.93s136,60.89,136,136-60.89,136-136,136Z"/><path class="cls-1" d="M272.55,200.13h-14.5c-5.79-19.1-23.52-33-44.5-33s-38.72,13.9-44.5,33h-14.5c-6.6,0-12,5.4-12,12v3c0,6.6,5.4,12,12,12h14.5c2.7,8.91,8,16.68,15.01,22.44-.52,.78-1.01,1.58-1.47,2.42h0c-2.93,5.35-7.32,9.75-12.67,12.67h0c-22.11,12.09-22.11,43.84,0,55.94h0c5.35,2.93,9.75,7.32,12.67,12.67h0c12.09,22.11,43.84,22.11,55.94,0h0c2.93-5.35,7.32-9.75,12.67-12.67h0c22.11-12.09,22.11-43.84,0-55.94h0c-5.14-2.81-9.38-6.99-12.3-12.05,9.07-5.91,15.96-14.9,19.16-25.48h14.5c6.6,0,12-5.4,12-12v-3c0-6.6-5.4-12-12-12Z"/></svg>