<svg id="Слой_1" data-name="Слой 1" xmlns="http://www.w3.org/2000/svg" viewBox="0 0 346 340.52"><path d="M346,170c0-1.3,0-2.61-.06-3.91l0-1.26c0-1-.08-2-.13-3.07,0-.71-.07-1.42-.11-2.13l-.15-2.13c-.07-1-.16-2.05-.25-3.06l-.12-1.25c-.13-1.3-.27-2.6-.42-3.89l0-.23h0c0-.1,0-.21,0-.31-.19-1.5-.39-3-.62-4.49v-.08c-.61-4-1.34-8-2.22-11.95l0,0a175.53,175.53,0,0,0-5.88-20.34L284.5,96.42l5.8-53.31a173.33,173.33,0,0,0-16.44-13.39h0l-.12-.09a172.67,172.67,0,0,0-41.68-22l-.54-.19c-1.25-.45-2.51-.89-3.77-1.31l-1.2-.39c-.67-.22-1.35-.46-2-.67l0,0A171.12,171.12,0,0,0,203.93,0L164.81,36.78,121.48,5.06a170.87,170.87,0,0,0-19.8,7.56l0,0-1.94.91L98.59,14c-1.21.58-2.4,1.17-3.59,1.77l-.5.25A172.61,172.61,0,0,0,55.82,43l-.12.11h0A176.58,176.58,0,0,0,41,58.41l12.28,52.21L4.19,132.27A175.51,175.51,0,0,0,.85,153.18l0,0c-.4,4-.64,8.06-.75,12.13v.09c0,1.5-.06,3-.07,4.52v.32H0v.23c0,1.3,0,2.61.06,3.91l0,1.26c0,1,.08,2,.13,3.06,0,.71.07,1.43.11,2.14L.48,183c.07,1,.16,2,.25,3.06l.12,1.25c.13,1.3.27,2.6.42,3.89l0,.23h0c0,.1,0,.2,0,.31.19,1.5.39,3,.62,4.49v.07c.61,4,1.34,8,2.22,12h0a175.12,175.12,0,0,0,5.88,20.35L61.5,244.09l-5.8,53.32A174.89,174.89,0,0,0,72.14,310.8h0l.12.09a172.55,172.55,0,0,0,41.69,22l.53.19c1.25.45,2.51.89,3.77,1.31l1.19.39,2,.67,0,0a171.12,171.12,0,0,0,20.57,5.08l39.12-36.78,43.33,31.72a172.7,172.7,0,0,0,19.8-7.56h0c.65-.29,1.29-.6,1.93-.9l1.14-.54c1.21-.57,2.4-1.16,3.59-1.76l.5-.26a172,172,0,0,0,38.68-26.94l.12-.1h0A176.58,176.58,0,0,0,305,282.11L292.69,229.9l49.12-21.65a175.51,175.51,0,0,0,3.34-20.91l0,0c.4-4,.64-8.06.75-12.14v-.08c0-1.5.06-3,.07-4.53v-.31h0ZM173,241.26a71,71,0,1,1,71-71A71,71,0,0,1,173,241.26Z"/></svg>