<svg id="Слой_1" data-name="Слой 1" xmlns="http://www.w3.org/2000/svg" viewBox="0 0 396 378"><defs><style>.cls-1{fill:#e85b79;}</style></defs><path class="cls-1" d="M396,180c0,123-112.07,219.73-239.63,193.75a195.22,195.22,0,0,1-151.89-151c-14.77-70.63,8.11-136.6,52.31-181.56a28.52,28.52,0,0,1,44.8,5.3l.3.5A28.48,28.48,0,0,1,97.5,81.88a141.13,141.13,0,0,0-41,99C56.16,259.33,121.58,324.09,200,323A141.51,141.51,0,0,0,298.49,81.87,28.48,28.48,0,0,1,294.11,47l.31-.5C304,30.63,326,27.77,339,41A197.37,197.37,0,0,1,396,180Z"/><rect class="cls-1" x="158" width="80" height="248" rx="40"/></svg>