<?xml version="1.0" encoding="UTF-8"?><svg id="_лой_1" xmlns="http://www.w3.org/2000/svg" viewBox="0 0 982.5 774.5"><defs><style>.cls-1{fill:#fff;}.cls-2{fill:#4d4d4d;}</style></defs><g><rect class="cls-1" x="7.5" y="7.5" width="942.01" height="731" rx="48.83" ry="48.83"/><path class="cls-2" d="M900.68,15c22.79,0,41.33,18.54,41.33,41.33V689.67c0,22.79-18.54,41.33-41.33,41.33H56.33c-22.79,0-41.33-18.54-41.33-41.33V56.33c0-22.79,18.54-41.33,41.33-41.33H900.68m0-15H56.33C25.35,0,0,25.35,0,56.33V689.67c0,30.98,25.35,56.33,56.33,56.33H900.68c30.98,0,56.33-25.35,56.33-56.33V56.33c0-30.98-25.35-56.33-56.33-56.33h0Z"/></g><g><rect class="cls-1" x="32.99" y="36" width="942.01" height="731" rx="48.83" ry="48.83"/><path class="cls-2" d="M926.17,43.5c22.79,0,41.33,18.54,41.33,41.33V718.17c0,22.79-18.54,41.33-41.33,41.33H81.82c-22.79,0-41.33-18.54-41.33-41.33V84.83c0-22.79,18.54-41.33,41.33-41.33H926.17m0-15H81.82c-30.98,0-56.33,25.35-56.33,56.33V718.17c0,30.98,25.35,56.33,56.33,56.33H926.17c30.98,0,56.33-25.35,56.33-56.33V84.83c0-30.98-25.35-56.33-56.33-56.33h0Z"/></g><g><path class="cls-1" d="M501.25,656c-5.63,0-10.6-2.96-13.28-7.91s-2.44-10.73,.64-15.44l184.25-282.08c2.84-4.35,7.45-6.84,12.64-6.84s9.8,2.49,12.64,6.84l184.25,282.08c3.08,4.72,3.32,10.49,.64,15.44-2.68,4.95-7.65,7.91-13.28,7.91H501.25Z"/><path class="cls-2" d="M685.5,351.23c1.54,0,4.4,.45,6.36,3.44l184.25,282.08c2.23,3.42,.97,6.57,.32,7.77-.65,1.2-2.6,3.98-6.68,3.98H501.25c-4.09,0-6.03-2.78-6.68-3.98-.65-1.2-1.91-4.35,.32-7.77l184.25-282.08c1.96-3,4.83-3.44,6.36-3.44m0-15c-7.23,0-14.46,3.41-18.92,10.24l-184.25,282.08c-9.82,15.03,.97,34.96,18.92,34.96h368.5c17.95,0,28.74-19.93,18.92-34.96l-184.25-282.08c-4.46-6.83-11.69-10.24-18.92-10.24h0Z"/></g><g><path class="cls-1" d="M155.58,656c-5.64,0-10.6-2.96-13.28-7.92-2.68-4.96-2.43-10.74,.66-15.46l221.53-337.7c2.84-4.33,7.44-6.82,12.62-6.82s9.78,2.48,12.62,6.82l236.87,361.08H155.58Z"/><path class="cls-2" d="M377.12,295.6c1.53,0,4.39,.45,6.35,3.43l229.25,349.47H155.58c-4.09,0-6.04-2.79-6.69-3.99-.65-1.2-1.91-4.36,.33-7.78l221.53-337.7c1.96-2.98,4.82-3.43,6.35-3.43m0-15c-7.22,0-14.43,3.4-18.9,10.2l-221.53,337.7c-9.86,15.03,.92,34.99,18.9,34.99h484.92l-244.49-372.7c-4.46-6.8-11.68-10.2-18.89-10.2h0Z"/></g><g><circle class="cls-1" cx="586.5" cy="226.5" r="46.5"/><path class="cls-2" d="M586.5,187.5c21.5,0,39,17.5,39,39s-17.5,39-39,39-39-17.5-39-39,17.5-39,39-39m0-15c-29.82,0-54,24.18-54,54s24.18,54,54,54,54-24.18,54-54-24.18-54-54-54h0Z"/></g></svg>