<?xml version="1.0" encoding="utf-8"?>
<!-- Generator: Adobe Illustrator 26.3.1, SVG Export Plug-In . SVG Version: 6.00 Build 0)  -->
<svg version="1.1" id="Layer_1" xmlns="http://www.w3.org/2000/svg" xmlns:xlink="http://www.w3.org/1999/xlink" x="0px" y="0px"
	 viewBox="0 0 512 512" style="enable-background:new 0 0 512 512;" xml:space="preserve">
<g>
	<g>
		<g>
			<path d="M416.9,286.5v-56.2c0-2.6-2.1-4.8-4.8-4.8h-17.9c-2.2,0-4.1-1.5-4.6-3.6c-3.2-12.8-8.3-24.9-15-36.2
				c-1.1-1.9-0.8-4.3,0.7-5.8l12.7-12.7c1.9-1.9,1.9-4.9,0-6.8l-36.3-36.3c-1.9-1.9-4.9-1.9-6.8,0l-12.7,12.7
				c-1.5,1.5-3.9,1.8-5.8,0.7c-11.3-6.7-23.5-11.8-36.2-15c-2.1-0.5-3.6-2.4-3.6-4.6V99.9c0-2.6-2.1-4.8-4.8-4.8h-51.4
				c-2.6,0-4.8,2.1-4.8,4.8v17.9c0,2.2-1.5,4.1-3.6,4.6c-12.8,3.2-24.9,8.3-36.2,15c-1.9,1.1-4.3,0.8-5.8-0.7l-12.7-12.7
				c-1.9-1.9-4.9-1.9-6.8,0l-36.3,36.3c-1.9,1.9-1.9,4.9,0,6.8l12.7,12.7c1.5,1.5,1.8,3.9,0.7,5.8c-6.7,11.3-11.8,23.5-15,36.2
				c-0.5,2.1-2.4,3.6-4.6,3.6H99.9c-2.6,0-4.8,2.1-4.8,4.8v51.4c0,2.6,2.1,4.8,4.8,4.8h17.9c2.2,0,4.1,1.5,4.6,3.6
				c3.2,12.8,8.3,24.9,15,36.2c1.1,1.9,0.8,4.3-0.7,5.8l-12.7,12.7c-1.9,1.9-1.9,4.9,0,6.8l36.3,36.3c1.9,1.9,4.9,1.9,6.8,0
				l12.7-12.7c1.5-1.5,3.9-1.8,5.8-0.7c11.3,6.7,23.5,11.8,36.2,15c2.1,0.5,3.6,2.4,3.6,4.6v17.9c0,2.6,2.1,4.8,4.8,4.8h51.4
				c2.6,0,4.8-2.1,4.8-4.8v-17.9c0-2.2,1.5-4.1,3.6-4.6c12.8-3.2,24.9-8.3,36.2-15c1.9-1.1,4.3-0.8,5.8,0.7l12.7,12.7
				c1.9,1.9,4.9,1.9,6.8,0l36.3-36.3c1.9-1.9,1.9-4.9,0-6.8l-12.7-12.7c-1.5-1.5-1.8-3.9-0.7-5.8c6.7-11.3,11.8-23.5,15-36.2
				c0.5-2.1,2.4-3.6,4.6-3.6L416.9,286.5L416.9,286.5z M381.8,280.8c-3.3,16.8-9.8,32.5-19.3,46.7l0,0c-1.3,1.9-1,4.4,0.6,6
				l11.3,11.3c1.9,1.9,1.9,4.9,0,6.8l-22.8,22.8c-1.9,1.9-4.9,1.9-6.8,0l-11.3-11.3c-1.6-1.6-4.1-1.9-6-0.6l0,0
				c-14.2,9.5-29.9,16.1-46.7,19.3l0,0c-2.2,0.4-3.9,2.4-3.9,4.7v16c0,2.6-2.1,4.8-4.8,4.8h-32.3c-2.6,0-4.8-2.1-4.8-4.8v-16
				c0-2.3-1.6-4.2-3.9-4.7l0,0c-16.8-3.3-32.5-9.8-46.7-19.3l0,0c-1.9-1.3-4.4-1-6,0.6l-11.3,11.3c-1.9,1.9-4.9,1.9-6.8,0
				l-22.8-22.8c-1.9-1.9-1.9-4.9,0-6.8l11.3-11.3c1.6-1.6,1.9-4.1,0.6-6l0,0c-9.5-14.2-16.1-29.9-19.3-46.7l0,0
				c-0.4-2.2-2.4-3.9-4.7-3.9h-16c-2.6,0-4.8-2.1-4.8-4.8v-32.3c0-2.6,2.1-4.8,4.8-4.8h16c2.3,0,4.2-1.6,4.7-3.9l0,0
				c3.3-16.8,9.8-32.5,19.3-46.7l0,0c1.3-1.9,1-4.4-0.6-6l-11.3-11.3c-1.9-1.9-1.9-4.9,0-6.8l22.8-22.8c1.9-1.9,4.9-1.9,6.8,0
				l11.3,11.3c1.6,1.6,4.1,1.9,6,0.6l0,0c14.2-9.5,29.9-16.1,46.7-19.3l0,0c2.2-0.4,3.9-2.4,3.9-4.7v-16c0-2.6,2.1-4.8,4.8-4.8h32.3
				c2.6,0,4.8,2.1,4.8,4.8v16c0,2.3,1.6,4.3,3.9,4.7l0,0c16.8,3.3,32.5,9.8,46.7,19.3l0,0c1.9,1.3,4.4,1,6-0.6l11.3-11.3
				c1.9-1.9,4.9-1.9,6.8,0l22.8,22.8c1.9,1.9,1.9,4.9,0,6.8l-11.3,11.3c-1.6,1.6-1.9,4.1-0.6,6l0,0c9.5,14.2,16.1,29.9,19.3,46.7
				l0,0c0.4,2.2,2.4,3.9,4.7,3.9h16c2.6,0,4.8,2.1,4.8,4.8v32.3c0,2.6-2.1,4.8-4.8,4.8h-16C384.2,276.9,382.3,278.5,381.8,280.8
				L381.8,280.8z"/>
		</g>
	</g>
</g>
</svg>
